<svg xmlns="http://www.w3.org/2000/svg" viewBox="0 0 600 240" width="600" height="240" role="img" aria-label="Aurora Drift cover art">
  <defs>
    <linearGradient id="bg" x1="0" y1="0" x2="1" y2="1">
      <stop offset="0%" stop-color="#0b132b"/>
      <stop offset="100%" stop-color="#3a86ff"/>
    </linearGradient>
  </defs>
  <rect width="600" height="240" fill="url(#bg)"/>
  <g fill="rgba(255,255,255,0.12)"><circle cx="330" cy="60" r="16"/><circle cx="364" cy="106" r="19"/><circle cx="398" cy="60" r="22"/><circle cx="432" cy="106" r="25"/><circle cx="466" cy="60" r="28"/></g>
  <g opacity="0.85"><rect x="40" y="193.309" width="5" height="5.4" rx="2.5" fill="rgba(255,255,255,0.55)"/><rect x="49" y="185.259" width="5" height="21.5" rx="2.5" fill="rgba(255,255,255,0.55)"/><rect x="58" y="185.719" width="5" height="20.6" rx="2.5" fill="rgba(255,255,255,0.55)"/><rect x="67" y="187.375" width="5" height="17.3" rx="2.5" fill="rgba(255,255,255,0.55)"/><rect x="76" y="190.204" width="5" height="11.6" rx="2.5" fill="rgba(255,255,255,0.55)"/><rect x="85" y="183.258" width="5" height="25.5" rx="2.5" fill="rgba(255,255,255,0.55)"/><rect x="94" y="185.926" width="5" height="20.1" rx="2.5" fill="rgba(255,255,255,0.55)"/><rect x="103" y="178.497" width="5" height="35.0" rx="2.5" fill="rgba(255,255,255,0.55)"/><rect x="112" y="185.282" width="5" height="21.4" rx="2.5" fill="rgba(255,255,255,0.55)"/><rect x="121" y="190.871" width="5" height="10.3" rx="2.5" fill="rgba(255,255,255,0.55)"/><rect x="130" y="186.225" width="5" height="19.6" rx="2.5" fill="rgba(255,255,255,0.55)"/><rect x="139" y="186.501" width="5" height="19.0" rx="2.5" fill="rgba(255,255,255,0.55)"/><rect x="148" y="179.67000000000002" width="5" height="32.7" rx="2.5" fill="rgba(255,255,255,0.55)"/><rect x="157" y="186.133" width="5" height="19.7" rx="2.5" fill="rgba(255,255,255,0.55)"/><rect x="166" y="184.247" width="5" height="23.5" rx="2.5" fill="rgba(255,255,255,0.55)"/><rect x="175" y="184.546" width="5" height="22.9" rx="2.5" fill="rgba(255,255,255,0.55)"/><rect x="184" y="187.444" width="5" height="17.1" rx="2.5" fill="rgba(255,255,255,0.55)"/><rect x="193" y="185.972" width="5" height="20.1" rx="2.5" fill="rgba(255,255,255,0.55)"/><rect x="202" y="186.961" width="5" height="18.1" rx="2.5" fill="rgba(255,255,255,0.55)"/><rect x="211" y="185.765" width="5" height="20.5" rx="2.5" fill="rgba(255,255,255,0.55)"/><rect x="220" y="184.845" width="5" height="22.3" rx="2.5" fill="rgba(255,255,255,0.55)"/><rect x="229" y="186.27100000000002" width="5" height="19.5" rx="2.5" fill="rgba(255,255,255,0.55)"/><rect x="238" y="186.317" width="5" height="19.4" rx="2.5" fill="rgba(255,255,255,0.55)"/><rect x="247" y="189.698" width="5" height="12.6" rx="2.5" fill="rgba(255,255,255,0.55)"/><rect x="256" y="182.338" width="5" height="27.3" rx="2.5" fill="rgba(255,255,255,0.55)"/><rect x="265" y="185.305" width="5" height="21.4" rx="2.5" fill="rgba(255,255,255,0.55)"/><rect x="274" y="179.693" width="5" height="32.6" rx="2.5" fill="rgba(255,255,255,0.55)"/><rect x="283" y="184.73" width="5" height="22.5" rx="2.5" fill="rgba(255,255,255,0.55)"/><rect x="292" y="190.986" width="5" height="10.0" rx="2.5" fill="rgba(255,255,255,0.55)"/><rect x="301" y="185.006" width="5" height="22.0" rx="2.5" fill="rgba(255,255,255,0.55)"/><rect x="310" y="189.077" width="5" height="13.8" rx="2.5" fill="rgba(255,255,255,0.55)"/><rect x="319" y="177.6" width="5" height="36.8" rx="2.5" fill="rgba(255,255,255,0.55)"/><rect x="328" y="188.893" width="5" height="14.2" rx="2.5" fill="rgba(255,255,255,0.55)"/><rect x="337" y="194" width="5" height="4.0" rx="2.5" fill="rgba(255,255,255,0.55)"/><rect x="346" y="184.776" width="5" height="22.4" rx="2.5" fill="rgba(255,255,255,0.55)"/><rect x="355" y="186.892" width="5" height="18.2" rx="2.5" fill="rgba(255,255,255,0.55)"/><rect x="364" y="186.087" width="5" height="19.8" rx="2.5" fill="rgba(255,255,255,0.55)"/><rect x="373" y="187.214" width="5" height="17.6" rx="2.5" fill="rgba(255,255,255,0.55)"/><rect x="382" y="185.811" width="5" height="20.4" rx="2.5" fill="rgba(255,255,255,0.55)"/><rect x="391" y="185.512" width="5" height="21.0" rx="2.5" fill="rgba(255,255,255,0.55)"/></g>
  <text x="40" y="82" font-family="Inter, Segoe UI, sans-serif" font-size="34" font-weight="700" fill="#ffffff">Aurora Drift</text>
  <text x="40" y="112" font-family="Inter, Segoe UI, sans-serif" font-size="17" fill="rgba(255,255,255,0.82)">Meridian Choir — Polar Bloom</text>
  <text x="40" y="228" font-family="Inter, Segoe UI, sans-serif" font-size="13" letter-spacing="3" fill="rgba(255,255,255,0.6)">CADENZA SAMPLE LIBRARY</text>
</svg>
