<svg xmlns="http://www.w3.org/2000/svg" viewBox="0 0 600 240" width="600" height="240" role="img" aria-label="Midnight Circuit cover art">
  <defs>
    <linearGradient id="bg" x1="0" y1="0" x2="1" y2="1">
      <stop offset="0%" stop-color="#1b2a6b"/>
      <stop offset="100%" stop-color="#5b2a86"/>
    </linearGradient>
  </defs>
  <rect width="600" height="240" fill="url(#bg)"/>
  <g fill="none" stroke="rgba(255,255,255,0.16)" stroke-width="2"><circle cx="440" cy="120" r="70"/><circle cx="440" cy="120" r="110"/><circle cx="440" cy="120" r="150"/><circle cx="440" cy="120" r="190"/></g>
  <g opacity="0.85"><rect x="40" y="193.24" width="5" height="5.5" rx="2.5" fill="rgba(255,255,255,0.55)"/><rect x="49" y="178.336" width="5" height="35.3" rx="2.5" fill="rgba(255,255,255,0.55)"/><rect x="58" y="180.107" width="5" height="31.8" rx="2.5" fill="rgba(255,255,255,0.55)"/><rect x="67" y="180.015" width="5" height="32.0" rx="2.5" fill="rgba(255,255,255,0.55)"/><rect x="76" y="181.809" width="5" height="28.4" rx="2.5" fill="rgba(255,255,255,0.55)"/><rect x="85" y="176.68" width="5" height="38.6" rx="2.5" fill="rgba(255,255,255,0.55)"/><rect x="94" y="185.788" width="5" height="20.4" rx="2.5" fill="rgba(255,255,255,0.55)"/><rect x="103" y="189.606" width="5" height="12.8" rx="2.5" fill="rgba(255,255,255,0.55)"/><rect x="112" y="193.148" width="5" height="5.7" rx="2.5" fill="rgba(255,255,255,0.55)"/><rect x="121" y="187.398" width="5" height="17.2" rx="2.5" fill="rgba(255,255,255,0.55)"/><rect x="130" y="189.238" width="5" height="13.5" rx="2.5" fill="rgba(255,255,255,0.55)"/><rect x="139" y="189.859" width="5" height="12.3" rx="2.5" fill="rgba(255,255,255,0.55)"/><rect x="148" y="191.814" width="5" height="8.4" rx="2.5" fill="rgba(255,255,255,0.55)"/><rect x="157" y="188.111" width="5" height="15.8" rx="2.5" fill="rgba(255,255,255,0.55)"/><rect x="166" y="189.33" width="5" height="13.3" rx="2.5" fill="rgba(255,255,255,0.55)"/><rect x="175" y="188.525" width="5" height="15.0" rx="2.5" fill="rgba(255,255,255,0.55)"/><rect x="184" y="189.836" width="5" height="12.3" rx="2.5" fill="rgba(255,255,255,0.55)"/><rect x="193" y="187.467" width="5" height="17.1" rx="2.5" fill="rgba(255,255,255,0.55)"/><rect x="202" y="184.776" width="5" height="22.4" rx="2.5" fill="rgba(255,255,255,0.55)"/><rect x="211" y="185.213" width="5" height="21.6" rx="2.5" fill="rgba(255,255,255,0.55)"/><rect x="220" y="182.062" width="5" height="27.9" rx="2.5" fill="rgba(255,255,255,0.55)"/><rect x="229" y="181.625" width="5" height="28.8" rx="2.5" fill="rgba(255,255,255,0.55)"/><rect x="238" y="177.37" width="5" height="37.3" rx="2.5" fill="rgba(255,255,255,0.55)"/><rect x="247" y="182.453" width="5" height="27.1" rx="2.5" fill="rgba(255,255,255,0.55)"/><rect x="256" y="180.889" width="5" height="30.2" rx="2.5" fill="rgba(255,255,255,0.55)"/><rect x="265" y="183.051" width="5" height="25.9" rx="2.5" fill="rgba(255,255,255,0.55)"/><rect x="274" y="179.348" width="5" height="33.3" rx="2.5" fill="rgba(255,255,255,0.55)"/><rect x="283" y="179.992" width="5" height="32.0" rx="2.5" fill="rgba(255,255,255,0.55)"/><rect x="292" y="179.808" width="5" height="32.4" rx="2.5" fill="rgba(255,255,255,0.55)"/><rect x="301" y="192.596" width="5" height="6.8" rx="2.5" fill="rgba(255,255,255,0.55)"/><rect x="310" y="188.663" width="5" height="14.7" rx="2.5" fill="rgba(255,255,255,0.55)"/><rect x="319" y="189.744" width="5" height="12.5" rx="2.5" fill="rgba(255,255,255,0.55)"/><rect x="328" y="189.951" width="5" height="12.1" rx="2.5" fill="rgba(255,255,255,0.55)"/><rect x="337" y="191.929" width="5" height="8.1" rx="2.5" fill="rgba(255,255,255,0.55)"/><rect x="346" y="184.362" width="5" height="23.3" rx="2.5" fill="rgba(255,255,255,0.55)"/><rect x="355" y="188.824" width="5" height="14.4" rx="2.5" fill="rgba(255,255,255,0.55)"/><rect x="364" y="189.1" width="5" height="13.8" rx="2.5" fill="rgba(255,255,255,0.55)"/><rect x="373" y="191.00900000000001" width="5" height="10.0" rx="2.5" fill="rgba(255,255,255,0.55)"/><rect x="382" y="189.123" width="5" height="13.8" rx="2.5" fill="rgba(255,255,255,0.55)"/><rect x="391" y="184.546" width="5" height="22.9" rx="2.5" fill="rgba(255,255,255,0.55)"/></g>
  <text x="40" y="82" font-family="Inter, Segoe UI, sans-serif" font-size="34" font-weight="700" fill="#ffffff">Midnight Circuit</text>
  <text x="40" y="112" font-family="Inter, Segoe UI, sans-serif" font-size="17" fill="rgba(255,255,255,0.82)">Kite Ensemble — Night Voltage</text>
  <text x="40" y="228" font-family="Inter, Segoe UI, sans-serif" font-size="13" letter-spacing="3" fill="rgba(255,255,255,0.6)">CADENZA SAMPLE LIBRARY</text>
</svg>
