<svg xmlns="http://www.w3.org/2000/svg" viewBox="0 0 600 240" width="600" height="240" role="img" aria-label="Slow Orbit cover art">
  <defs>
    <linearGradient id="bg" x1="0" y1="0" x2="1" y2="1">
      <stop offset="0%" stop-color="#2b2d42"/>
      <stop offset="100%" stop-color="#8d99ae"/>
    </linearGradient>
  </defs>
  <rect width="600" height="240" fill="url(#bg)"/>
  <g fill="rgba(255,255,255,0.12)"><circle cx="330" cy="60" r="16"/><circle cx="364" cy="106" r="19"/><circle cx="398" cy="60" r="22"/><circle cx="432" cy="106" r="25"/><circle cx="466" cy="60" r="28"/></g>
  <g opacity="0.85"><rect x="40" y="191.768" width="5" height="8.5" rx="2.5" fill="rgba(255,255,255,0.55)"/><rect x="49" y="183.12" width="5" height="25.8" rx="2.5" fill="rgba(255,255,255,0.55)"/><rect x="58" y="176.68" width="5" height="38.6" rx="2.5" fill="rgba(255,255,255,0.55)"/><rect x="67" y="176.79500000000002" width="5" height="38.4" rx="2.5" fill="rgba(255,255,255,0.55)"/><rect x="76" y="192.458" width="5" height="7.1" rx="2.5" fill="rgba(255,255,255,0.55)"/><rect x="85" y="184.339" width="5" height="23.3" rx="2.5" fill="rgba(255,255,255,0.55)"/><rect x="94" y="178.382" width="5" height="35.2" rx="2.5" fill="rgba(255,255,255,0.55)"/><rect x="103" y="184.546" width="5" height="22.9" rx="2.5" fill="rgba(255,255,255,0.55)"/><rect x="112" y="188.939" width="5" height="14.1" rx="2.5" fill="rgba(255,255,255,0.55)"/><rect x="121" y="183.74099999999999" width="5" height="24.5" rx="2.5" fill="rgba(255,255,255,0.55)"/><rect x="130" y="185.926" width="5" height="20.1" rx="2.5" fill="rgba(255,255,255,0.55)"/><rect x="139" y="185.259" width="5" height="21.5" rx="2.5" fill="rgba(255,255,255,0.55)"/><rect x="148" y="183.856" width="5" height="24.3" rx="2.5" fill="rgba(255,255,255,0.55)"/><rect x="157" y="180.544" width="5" height="30.9" rx="2.5" fill="rgba(255,255,255,0.55)"/><rect x="166" y="182.936" width="5" height="26.1" rx="2.5" fill="rgba(255,255,255,0.55)"/><rect x="175" y="181.924" width="5" height="28.2" rx="2.5" fill="rgba(255,255,255,0.55)"/><rect x="184" y="180.935" width="5" height="30.1" rx="2.5" fill="rgba(255,255,255,0.55)"/><rect x="193" y="191.331" width="5" height="9.3" rx="2.5" fill="rgba(255,255,255,0.55)"/><rect x="202" y="180.107" width="5" height="31.8" rx="2.5" fill="rgba(255,255,255,0.55)"/><rect x="211" y="182.062" width="5" height="27.9" rx="2.5" fill="rgba(255,255,255,0.55)"/><rect x="220" y="185.719" width="5" height="20.6" rx="2.5" fill="rgba(255,255,255,0.55)"/><rect x="229" y="188.686" width="5" height="14.6" rx="2.5" fill="rgba(255,255,255,0.55)"/><rect x="238" y="185.972" width="5" height="20.1" rx="2.5" fill="rgba(255,255,255,0.55)"/><rect x="247" y="185.581" width="5" height="20.8" rx="2.5" fill="rgba(255,255,255,0.55)"/><rect x="256" y="182.729" width="5" height="26.5" rx="2.5" fill="rgba(255,255,255,0.55)"/><rect x="265" y="180.728" width="5" height="30.5" rx="2.5" fill="rgba(255,255,255,0.55)"/><rect x="274" y="179.85399999999998" width="5" height="32.3" rx="2.5" fill="rgba(255,255,255,0.55)"/><rect x="283" y="183.212" width="5" height="25.6" rx="2.5" fill="rgba(255,255,255,0.55)"/><rect x="292" y="180.061" width="5" height="31.9" rx="2.5" fill="rgba(255,255,255,0.55)"/><rect x="301" y="185.006" width="5" height="22.0" rx="2.5" fill="rgba(255,255,255,0.55)"/><rect x="310" y="192.274" width="5" height="7.5" rx="2.5" fill="rgba(255,255,255,0.55)"/><rect x="319" y="184.96" width="5" height="22.1" rx="2.5" fill="rgba(255,255,255,0.55)"/><rect x="328" y="184.109" width="5" height="23.8" rx="2.5" fill="rgba(255,255,255,0.55)"/><rect x="337" y="183.649" width="5" height="24.7" rx="2.5" fill="rgba(255,255,255,0.55)"/><rect x="346" y="189.238" width="5" height="13.5" rx="2.5" fill="rgba(255,255,255,0.55)"/><rect x="355" y="186.11" width="5" height="19.8" rx="2.5" fill="rgba(255,255,255,0.55)"/><rect x="364" y="185.627" width="5" height="20.7" rx="2.5" fill="rgba(255,255,255,0.55)"/><rect x="373" y="181.303" width="5" height="29.4" rx="2.5" fill="rgba(255,255,255,0.55)"/><rect x="382" y="181.625" width="5" height="28.8" rx="2.5" fill="rgba(255,255,255,0.55)"/><rect x="391" y="178.589" width="5" height="34.8" rx="2.5" fill="rgba(255,255,255,0.55)"/></g>
  <text x="40" y="82" font-family="Inter, Segoe UI, sans-serif" font-size="34" font-weight="700" fill="#ffffff">Slow Orbit</text>
  <text x="40" y="112" font-family="Inter, Segoe UI, sans-serif" font-size="17" fill="rgba(255,255,255,0.82)">Harbour Static — Low Tide Signals</text>
  <text x="40" y="228" font-family="Inter, Segoe UI, sans-serif" font-size="13" letter-spacing="3" fill="rgba(255,255,255,0.6)">CADENZA SAMPLE LIBRARY</text>
</svg>
